<?xml version="1.0" encoding="UTF-8" standalone="no"?>
<svg width="56px" height="39px" viewBox="0 0 56 39" version="1.1" xmlns="http://www.w3.org/2000/svg" xmlns:xlink="http://www.w3.org/1999/xlink">
    <!-- Generator: Sketch 3.8.3 (29802) - http://www.bohemiancoding.com/sketch -->
    <title>Group 2</title>
    <desc>Created with Sketch.</desc>
    <defs></defs>
    <g id="Page-3" stroke="none" stroke-width="1" fill="none" fill-rule="evenodd">
        <g id="Group-2" fill="#F5A623">
            <path d="M18.6826402,32.1351019 C19.0124842,32.6451993 18.784386,33.0618437 18.1748874,33.0618437 L11.2753088,33.0618437 L11.2753088,39 L7.35194238,39 L7.35194238,33.0618437 L0.659175328,33.0618437 C0.0498720334,33.0618437 -0.178811992,32.6451993 0.151032004,32.1351019 C0.151032004,32.1351019 4.13122766,25.9825879 4.2757419,25.7608318 L1.63523234,25.7608318 C1.02592904,25.7608318 0.797245017,25.3441874 1.12708901,24.8340901 L5.83571457,17.5603353 L4.56027873,17.5603353 C3.95312362,17.5603353 3.72463489,17.1436909 4.05447888,16.6335935 L8.81583261,9.27612052 C9.14548131,8.76602316 9.68662857,8.76602316 10.0168631,9.27612052 L14.7778263,16.6335935 C15.1078656,17.1436909 14.8793768,17.5603353 14.2698783,17.5603353 L12.9965906,17.5603353 L17.7046303,24.8340901 C18.0344743,25.3441874 17.8063761,25.7608318 17.1968775,25.7608318 L14.5548057,25.7608318 C14.7004916,25.9825879 18.6826402,32.1351019 18.6826402,32.1351019 L18.6826402,32.1351019 Z" id="Shape"></path>
            <path d="M56,31.5316684 C55.7558766,31.018821 33.5557533,25.8352411 18.0562693,28.9119584 C17.5107201,28.1200941 16.9121859,27.25347 16.4253127,26.549958 L17.280726,26.549958 C17.9420572,26.549958 18.4779906,26.2815947 18.7505689,25.813199 C19.0231473,25.3448032 18.9723209,24.7790546 18.6151628,24.2592271 L14.8241847,18.7597098 C15.2598391,18.6605201 15.6069889,18.4235669 15.8093131,18.076403 C16.0822839,17.6080072 16.0310651,17.0422586 15.6742995,16.5224311 C15.6742995,16.5224311 13.623584,13.5467404 13.6216216,13.5467404 C16.3530961,8.40724484 18.917766,3.71042923 19.7168582,2.66710061 L20.3153924,1.88460415 C22.236589,-0.628201384 24.5345677,-0.628201384 26.4577267,1.88460415 L27.0566534,2.66710061 C27.4587506,3.19243861 28.2808029,4.64538392 29.3330456,6.61448299 C30.3829335,8.58358207 31.6622267,11.0669981 32.9754695,13.658788 C34.529696,10.7051394 35.8721787,8.27315507 36.4785625,7.47963753 L37.0790591,6.69530423 C39.0002557,4.18249869 41.2982344,4.18249869 43.219431,6.69530423 L43.8203201,7.47963753 C45.7397505,9.99225938 55.9984301,31.5285458 56,31.5316684 L56,31.5316684 Z M44.3130805,12.3656483 C44.9606749,12.7550597 45.211863,12.5456592 44.8725628,11.8990894 C44.8725628,11.8990894 43.1042377,8.54684515 42.6783954,7.99028076 L42.252553,7.43187953 C40.8808304,5.64095453 39.2441829,5.64095453 37.8724603,7.43187953 L37.446618,7.99028076 C37.0207756,8.54684515 35.1721881,11.9101105 35.1721881,11.9101105 C34.8189548,12.5511698 35.0642557,12.7605702 35.7159711,12.3766694 L36.9053861,11.676831 C37.5569052,11.2929301 38.496702,11.4270199 38.9973121,11.9762369 L39.209252,12.2076795 C39.7096659,12.7568965 40.510328,12.7440386 40.9871929,12.17829 L41.1367283,12.0037896 C41.6151632,11.4398778 42.5357284,11.2966038 43.183519,11.6860152 L44.3130805,12.3656483 L44.3130805,12.3656483 Z M27.5660943,7.5898483 C28.2158473,7.97925969 28.4648767,7.76985922 28.1253803,7.12328938 C28.1253803,7.12328938 26.3572515,3.77104515 25.9314091,3.21448077 L25.5055668,2.65607954 C24.1358066,0.865154538 22.4971966,0.865154538 21.125474,2.65607954 L20.6996317,3.21448077 C20.2737893,3.77104515 18.4252018,7.13431046 18.4252018,7.13431046 C18.0739309,7.77536976 18.3170732,7.98477022 18.9689848,7.60086938 L20.1583998,6.90103099 C20.809919,6.51713015 21.7497157,6.65121992 22.2503258,7.20043692 L22.4622658,7.43187953 C22.9626796,7.98109653 23.7631455,7.96823861 24.2419728,7.40248999 L24.3891533,7.22798961 C24.8677844,6.66407784 25.790312,6.52080384 26.4361402,6.91021522 L27.5660943,7.5898483 L27.5660943,7.5898483 Z" id="Shape"></path>
        </g>
    </g>
</svg>