<?xml version="1.0" encoding="UTF-8" standalone="no"?>
<svg width="40px" height="43px" viewBox="0 0 40 43" version="1.1" xmlns="http://www.w3.org/2000/svg" xmlns:xlink="http://www.w3.org/1999/xlink">
    <!-- Generator: Sketch 3.8.3 (29802) - http://www.bohemiancoding.com/sketch -->
    <title>Group</title>
    <desc>Created with Sketch.</desc>
    <defs></defs>
    <g id="Page-3" stroke="none" stroke-width="1" fill="none" fill-rule="evenodd">
        <g id="Group">
            <path d="M18.8475054,24.2478658 C19.1802601,24.7800494 18.9501491,25.2147336 18.3352719,25.2147336 L11.3748079,25.2147336 L11.3748079,31.4099998 L7.41681968,31.4099998 L7.41681968,25.2147336 L0.664992228,25.2147336 C0.0503121297,25.2147336 -0.18038992,24.7800494 0.152364787,24.2478658 C0.152364787,24.2478658 4.16768373,17.8289606 4.31347324,17.597603 L1.64966246,17.597603 C1.03498236,17.597603 0.804280315,17.1629187 1.13703502,16.6307352 L5.8872119,9.04204186 L4.60052096,9.04204186 C3.98800801,9.04204186 3.75750297,8.60735761 4.09025768,8.07517408 L8.89362802,0.399137645 C9.22618572,-0.133045882 9.77210833,-0.133045882 10.1052571,0.399137645 L14.9082334,8.07517408 C15.2411851,8.60735761 15.0106801,9.04204186 14.395803,9.04204186 L13.1112792,9.04204186 L17.860865,16.6307352 C18.1936197,17.1629187 17.9635087,17.597603 17.3486316,17.597603 L14.6832447,17.597603 C14.8302163,17.8289606 18.8475054,24.2478658 18.8475054,24.2478658 L18.8475054,24.2478658 Z" id="Shape" fill="#F5A623"></path>
            <path d="M39.8394793,35.2478658 C40.1897474,35.7800494 39.9475253,36.2147336 39.3002863,36.2147336 L31.973482,36.2147336 L31.973482,42.4099998 L27.8071786,42.4099998 L27.8071786,36.2147336 L20.6999918,36.2147336 C20.0529601,36.2147336 19.8101159,35.7800494 20.160384,35.2478658 C20.160384,35.2478658 24.3870355,28.8289606 24.5404981,28.597603 L21.7364868,28.597603 C21.0894551,28.597603 20.8466109,28.1629187 21.196879,27.6307352 L26.1970652,20.0420419 L24.8426536,20.0420419 C24.1979032,20.0420419 23.9552663,19.6073576 24.3055344,19.0751741 L29.3617137,11.3991376 C29.7117744,10.8669541 30.2864298,10.8669541 30.6371127,11.3991376 L35.6928772,19.0751741 C36.0433527,19.6073576 35.8007159,20.0420419 35.1534768,20.0420419 L33.8013465,20.0420419 L38.8009105,27.6307352 C39.1511786,28.1629187 38.9089565,28.597603 38.2617175,28.597603 L35.4560471,28.597603 C35.610754,28.8289606 39.8394793,35.2478658 39.8394793,35.2478658 L39.8394793,35.2478658 Z" id="Shape" fill="#417505"></path>
        </g>
    </g>
</svg>