<?xml version="1.0" encoding="UTF-8" standalone="no"?>
<svg width="47px" height="48px" viewBox="0 0 47 48" version="1.1" xmlns="http://www.w3.org/2000/svg" xmlns:xlink="http://www.w3.org/1999/xlink">
    <!-- Generator: Sketch 3.8.3 (29802) - http://www.bohemiancoding.com/sketch -->
    <title>Group</title>
    <desc>Created with Sketch.</desc>
    <defs></defs>
    <g id="Page-3" stroke="none" stroke-width="1" fill="none" fill-rule="evenodd">
        <g id="Group">
            <path d="M22.8154012,28.1077617 C23.2182096,28.7246609 22.9396541,29.2285403 22.1953292,29.2285403 L13.7695043,29.2285403 L13.7695043,36.4099998 L8.97825541,36.4099998 L8.97825541,29.2285403 L0.804990592,29.2285403 C0.060904157,29.2285403 -0.218366745,28.7246609 0.184441584,28.1077617 C0.184441584,28.1077617 5.04509083,20.6670633 5.22157287,20.3988769 L1.99695982,20.3988769 C1.25287339,20.3988769 0.973602486,19.8949975 1.37641082,19.2780983 L7.12662493,10.4813991 L5.56905169,10.4813991 C4.82758864,10.4813991 4.54855622,9.9775196 4.95136455,9.36062045 L10.7659708,0.46267436 C11.1685406,-0.154224787 11.8293943,-0.154224787 12.2326796,0.46267436 L18.0468088,9.36062045 C18.4498557,9.9775196 18.1708232,10.4813991 17.4264983,10.4813991 L15.8715485,10.4813991 L21.6210471,19.2780983 C22.0238554,19.8949975 21.7453,20.3988769 21.0009751,20.3988769 L17.7744541,20.3988769 C17.9523671,20.6670633 22.8154012,28.1077617 22.8154012,28.1077617 L22.8154012,28.1077617 Z" id="Shape" fill="#F5A623"></path>
            <path d="M46.8154012,39.1101616 C47.2182096,39.7271135 46.9396541,40.2310359 46.1953292,40.2310359 L37.7695043,40.2310359 L37.7695043,47.4131087 L32.9782554,47.4131087 L32.9782554,40.2310359 L24.8049906,40.2310359 C24.0609042,40.2310359 23.7816333,39.7271135 24.1844416,39.1101616 C24.1844416,39.1101616 29.0450908,31.6688279 29.2215729,31.4006187 L25.9969598,31.4006187 C25.2528734,31.4006187 24.9736025,30.8966962 25.3764108,30.2797444 L31.1266249,21.482294 L29.5690517,21.482294 C28.8275886,21.482294 28.5485562,20.9783715 28.9513646,20.3614197 L34.7659708,11.4627139 C35.1685406,10.845762 35.8293943,10.845762 36.2326796,11.4627139 L42.0468088,20.3614197 C42.4498557,20.9783715 42.1708232,21.482294 41.4264983,21.482294 L39.8715485,21.482294 L45.6210471,30.2797444 C46.0238554,30.8966962 45.7453,31.4006187 45.0009751,31.4006187 L41.7744541,31.4006187 C41.9523671,31.6688279 46.8154012,39.1101616 46.8154012,39.1101616 L46.8154012,39.1101616 Z" id="Shape" fill="#417505"></path>
        </g>
    </g>
</svg>